<?xml version="1.0" encoding="iso-8859-1"?>
<!-- Generator: Adobe Illustrator 16.0.4, SVG Export Plug-In . SVG Version: 6.00 Build 0)  -->
<!DOCTYPE svg PUBLIC "-//W3C//DTD SVG 1.1//EN" "http://www.w3.org/Graphics/SVG/1.1/DTD/svg11.dtd">
<svg version="1.1" id="Capa_1" xmlns="http://www.w3.org/2000/svg" xmlns:xlink="http://www.w3.org/1999/xlink" x="0px" y="0px"
	 width="20px" height="20px" viewBox="0 0 20 20" style="enable-background:new 0 0 20 20;" xml:space="preserve">
<path style="fill:#010002;" d="M12.48,14.947l0.66,0.983H6.861l0.658-0.983H12.48z M20,4v12c0,2.2-1.8,4-4,4H4c-2.2,0-4-1.8-4-4V4
	c0-2.2,1.8-4,4-4h12C18.2,0,20,1.8,20,4z M15.613,17.5l-2.523-3.743c0.484-0.076,0.885-0.3,1.203-0.667
	c0.32-0.367,0.48-0.803,0.48-1.306V4.472c0-0.541-0.193-1.005-0.58-1.393C13.805,2.692,13.33,2.5,12.771,2.5H7.229
	c-0.562,0-1.035,0.192-1.422,0.579c-0.387,0.388-0.58,0.852-0.58,1.393v7.312c0,0.503,0.164,0.943,0.494,1.32
	c0.328,0.377,0.725,0.594,1.189,0.652L4.387,17.5h1.42l0.242-0.36h7.902l0.242,0.36H15.613z M7.955,12.538
	c0.174-0.175,0.262-0.396,0.262-0.667c0-0.251-0.088-0.468-0.262-0.652c-0.176-0.184-0.389-0.276-0.639-0.276
	c-0.271,0-0.492,0.093-0.668,0.276c-0.176,0.185-0.262,0.401-0.262,0.652c0,0.271,0.086,0.492,0.262,0.667
	C6.824,12.712,7.045,12.8,7.316,12.8C7.566,12.8,7.779,12.712,7.955,12.538z M7.373,7.924h5.252c0.271,0,0.498-0.086,0.682-0.26
	c0.186-0.174,0.277-0.396,0.277-0.668v-2.34c0-0.271-0.092-0.493-0.277-0.668c-0.184-0.174-0.41-0.261-0.682-0.261H7.373
	c-0.271,0-0.494,0.087-0.666,0.261C6.533,4.163,6.445,4.386,6.445,4.656v2.34c0,0.271,0.088,0.494,0.262,0.668
	C6.879,7.838,7.102,7.924,7.373,7.924z M12.684,10.942c-0.252,0-0.465,0.093-0.639,0.276c-0.174,0.185-0.262,0.401-0.262,0.652
	c0,0.271,0.088,0.492,0.262,0.667c0.174,0.174,0.387,0.262,0.639,0.262c0.27,0,0.494-0.088,0.666-0.262
	c0.174-0.175,0.262-0.396,0.262-0.667c0-0.251-0.088-0.468-0.262-0.652C13.178,11.035,12.953,10.942,12.684,10.942z"/>
<g>
</g>
<g>
</g>
<g>
</g>
<g>
</g>
<g>
</g>
<g>
</g>
<g>
</g>
<g>
</g>
<g>
</g>
<g>
</g>
<g>
</g>
<g>
</g>
<g>
</g>
<g>
</g>
<g>
</g>
</svg>
